<svg width="18" height="18" viewBox="0 0 18 18" fill="none" xmlns="http://www.w3.org/2000/svg">
<path fill-rule="evenodd" clip-rule="evenodd" d="M2.00745 1.40735C3.68752 -0.272722 6.5227 -0.145002 7.6925 1.95112L8.3415 3.11405C9.1054 4.48287 8.7799 6.20995 7.6616 7.34192C7.6467 7.36233 7.5677 7.47726 7.5579 7.67807C7.5454 7.9344 7.6364 8.52719 8.5548 9.44559C9.4729 10.3637 10.0656 10.455 10.3221 10.4425C10.5231 10.4327 10.6381 10.3538 10.6585 10.3388C11.7905 9.22059 13.5176 8.89499 14.8864 9.65889L16.0493 10.308C18.1454 11.4778 18.2731 14.3129 16.5931 15.993C15.6944 16.8916 14.4995 17.6901 13.0953 17.7434C11.0144 17.8223 7.5591 17.2849 4.13735 13.8631C0.715564 10.4413 0.178183 6.98605 0.257063 4.90512C0.310303 3.50093 1.10879 2.30601 2.00745 1.40735ZM6.3827 2.68212C5.78363 1.60877 4.17394 1.36218 3.06811 2.46801C2.29276 3.24336 1.7887 4.09917 1.75599 4.96195C1.6902 6.69729 2.11864 9.72309 5.19801 12.8024C8.2774 15.8818 11.3031 16.3102 13.0385 16.2444C13.9013 16.2117 14.7571 15.7077 15.5324 14.9323C16.6382 13.8265 16.3916 12.2168 15.3183 11.6178L14.1554 10.9688C13.432 10.565 12.4158 10.7028 11.7025 11.4161C11.6324 11.4861 11.1864 11.9023 10.395 11.9408C9.5847 11.9802 8.604 11.6161 7.4942 10.5063C6.384 9.39609 6.02 8.41509 6.0597 7.60472C6.0985 6.8132 6.5147 6.3676 6.5843 6.29795C7.2976 5.58463 7.4354 4.56846 7.0317 3.84505L6.3827 2.68212Z" fill="#A23A77"/>
</svg>
